<svg xmlns="http://www.w3.org/2000/svg" viewBox="0 0 313.61 338.91"><defs><style>.cls-1{fill:#ea5b0c;}.cls-2{fill:#4e655d;}.cls-3{fill:none;stroke:#fff;stroke-linejoin:round;stroke-width:3px;}</style></defs><g id="Calque_2" data-name="Calque 2"><g id="Mode_Isolation" data-name="Mode Isolation"><path class="cls-1" d="M57.81,309.93A10.64,10.64,0,0,0,59.57,304a8.55,8.55,0,0,0-2-5.49,14,14,0,0,0-6.42-4A35.24,35.24,0,0,0,39.78,293h-24L4.05,336.68H32.56a43.22,43.22,0,0,0,11.95-1.54,20.23,20.23,0,0,0,8.39-4.44,9.29,9.29,0,0,0,3.07-7A6.7,6.7,0,0,0,53,318a12.09,12.09,0,0,0-3.49-1.72,23.94,23.94,0,0,0,3.24-1.65A15.86,15.86,0,0,0,57.81,309.93ZM39.15,325.54a5.7,5.7,0,0,1-2.06,1.4,7.49,7.49,0,0,1-2.84.51H22.79l1.76-6.55H35.84a5.24,5.24,0,0,1,3.09.72,2.18,2.18,0,0,1,1,1.82A3,3,0,0,1,39.15,325.54Zm3.35-16.16a7.23,7.23,0,0,1-2.93,2.28,10.83,10.83,0,0,1-4.49.86H26.8l2.66-9.9h8a10.66,10.66,0,0,1,4.24.78,2.92,2.92,0,0,1,1.8,2.92A5,5,0,0,1,42.5,309.38Z"/><path class="cls-1" d="M118,301.19a21.35,21.35,0,0,0-9.68-6.62,30.7,30.7,0,0,0-4.2-1.22q-17,6.82-34.06,13.65c-5.87,2.33-6.51,2.19-6.56-3.75a23.7,23.7,0,0,0-3.75,5.32,21.36,21.36,0,0,0-2.39,9.84,16,16,0,0,0,3.35,10.2,21.15,21.15,0,0,0,9.7,6.53,45.27,45.27,0,0,0,15.22,2.27,52.16,52.16,0,0,0,12.28-1.34,39,39,0,0,0,10-3.79,28.8,28.8,0,0,0,7.38-5.74,23.52,23.52,0,0,0,4.53-7.17,21.78,21.78,0,0,0,1.55-8.14A15.77,15.77,0,0,0,118,301.19ZM103.65,317a16,16,0,0,1-3.31,5.13A17.09,17.09,0,0,1,94.67,326a19.93,19.93,0,0,1-8.1,1.49,15.57,15.57,0,0,1-9-2.37c-2.3-1.58-3.44-4-3.44-7.34a14.4,14.4,0,0,1,1-5.16,15.58,15.58,0,0,1,3.32-5.14,16.91,16.91,0,0,1,5.7-3.88,20.15,20.15,0,0,1,8-1.49,15.73,15.73,0,0,1,9,2.37c2.3,1.58,3.44,4,3.44,7.35A14.45,14.45,0,0,1,103.65,317Z"/><path class="cls-1" d="M181.77,293H165.41l-6.78,25.8a11.9,11.9,0,0,1-4.16,6.46,12.63,12.63,0,0,1-7.92,2.28c-2.91,0-5-.5-6.29-1.52a4.92,4.92,0,0,1-1.93-4.13,12.57,12.57,0,0,1,.08-1.48c.06-.51.14-1.05.25-1.61l6.88-25.8H129.18l-6.54,24.76a26.34,26.34,0,0,0-.63,3.08,20.43,20.43,0,0,0-.21,2.87,11.28,11.28,0,0,0,5.83,10.15q5.84,3.59,17.48,3.58,13.51,0,20.56-5t9.56-14.48Z"/><polygon class="cls-1" points="186.88 292.96 175.14 336.68 191.41 336.68 203.15 292.96 186.88 292.96"/><path class="cls-1" d="M311.52,294.06c-2.23-.45-4.65-.83-7.25-1.12a71.62,71.62,0,0,0-8.44-.46,97.35,97.35,0,0,0-10.85.57,39.07,39.07,0,0,0-9.4,2.22,24.82,24.82,0,0,0-7.8,4.74,25.78,25.78,0,0,0-5.91,8.07l-13.71,27.66-8.89-11.48c.65-.25,1.29-.51,1.92-.79a32,32,0,0,0,7-4.1,20.31,20.31,0,0,0,5-5.49,12.56,12.56,0,0,0,1.9-6.77,11.59,11.59,0,0,0-5.88-10.59Q243.32,293,232.35,293H208.61l-11.74,43.71h16.26l2.64-9.83h8.74l6.5,9.83H264.3L269.56,326h16.85l-2.91,10.69h16.36l9.06-33.58c.34-1.21.78-2.62,1.34-4.21a22,22,0,0,1,1.85-4.1Zm-74.43,18.18a11.43,11.43,0,0,1-4.62,3.67,17.24,17.24,0,0,1-7.5,1.46h-6.65l3.92-14.57h8.35a12.91,12.91,0,0,1,5.87,1.12,4,4,0,0,1,2.18,3.86A7.75,7.75,0,0,1,237.09,312.24ZM293,302.68a23.43,23.43,0,0,0-1.22,3.4L289,316.58H274.2l3.94-8a12.2,12.2,0,0,1,2.6-3.5,9.71,9.71,0,0,1,3.82-2.05,21,21,0,0,1,8.05-.55l.49.06Z"/><path class="cls-2" d="M247.77,8.25H142V282.43h26.86l0-.14h50.73v-9.8h-47.9L228.68,75.31Zm-80.26,202a10.05,10.05,0,0,1-2-.19c-3.74-.72-6.51-3.41-6.51-6.63s2.77-5.93,6.51-6.64a9.36,9.36,0,0,1,2-.2c4.7,0,8.5,3.06,8.5,6.84S172.21,210.22,167.51,210.22ZM176.93,160c-11.92,0-21.57-7.76-21.57-17.32s9.65-17.32,21.57-17.32,21.57,7.75,21.57,17.32S188.85,160,176.93,160Zm9.12-76.59c-16.28,0-29.48-10.6-29.48-23.67s13.2-23.66,29.48-23.66,29.47,10.59,29.47,23.66S202.32,83.39,186.05,83.39Z"/><path class="cls-2" d="M48.46,30.16v21l7.25,1v62.57c1.57-.37,3.21-.73,4.91-1.08,1.3-.26,2.63-.52,4-.77V93.85c5.73-1.32,11.49-2.55,17.3-3.63q.17,10,.32,20,2.25-.27,4.56-.51l-.36-20.31c6.66-1.1,13.41-1.93,20.17-2.48q.24,10.59.45,21.18l4.42-.22q-.21-10.64-.43-21.28c6.8-.43,13.64-.53,20.46-.36q.06,10.56.09,21.13c.28,0,.57,0,.85,0V1.61S96.64-1.83,48.46,30.16ZM64.62,45.64C70,43,75.48,40.48,81.08,38.1q.15,10.18.32,20.37c-5.68,2-11.25,4.15-16.78,6.4Zm0,43.21v-19c5.56-2.1,11.16-4.1,16.87-6q.17,10.44.35,20.86Q73.14,86.63,64.62,88.85ZM85.46,36.36a162.82,162.82,0,0,1,19.92-6.06q.21,10.79.45,21.56a181.06,181.06,0,0,0-20,5.14Q85.64,46.68,85.46,36.36Zm.87,47.53q-.19-10.67-.4-21.33a191.38,191.38,0,0,1,20-4.71L106.48,81C99.71,81.64,93,82.62,86.33,83.89Zm23.54-54.46a129.14,129.14,0,0,1,21.28-1.55q0,10.83.09,21.64A143.44,143.44,0,0,0,110.3,51.1Q110.08,40.25,109.87,29.43Zm1,51.16q-.24-11.72-.5-23.43a154.42,154.42,0,0,1,20.86-1.4q.09,12.15.18,24.29C124.61,80,117.76,80.05,110.92,80.59Z"/><path class="cls-1" d="M133.05,107.37l.13,66.88-3-1.75c-.88-.42-1.79-.8-2.72-1.15-1.54-.58-3.09-1.09-4.67-1.55V123.62c-11.25-.2-28.28,2-41,4l-6.53,1.06h0c-6.49,1.09-10.81,1.92-10.81,1.92v30.92l-.18.12a22.11,22.11,0,0,1-9.63,3.77V133.09l-1.7-1.4-6.4,1.4v-15.4a129.46,129.46,0,0,1,15-4,320.68,320.68,0,0,1,46.19-5.6l1.53-.08c.74-.05,1.48-.08,2.22-.12,6.54-.31,13.27-.5,20.12-.54h1.45Z"/><path class="cls-2" d="M301.61,252.58a29.64,29.64,0,0,1-4.94,16.94A32.46,32.46,0,0,1,282.47,281a53,53,0,0,1-21.61,4.1,54.88,54.88,0,0,1-25.75-6.55,60.39,60.39,0,0,1-20.81-17.73l10.76-9.44a48.18,48.18,0,0,0,16.22,15.82A41.18,41.18,0,0,0,262.63,273q12.51,0,19.05-5.5t6.52-14.94q0-10.31-7-15.81t-22.13-9.7Q221,217.82,221,192.82q0-15.54,10.23-23.93t28.4-8.39a55.52,55.52,0,0,1,23.72,4.89,53.71,53.71,0,0,1,18.79,15l-10.41,8.74a43.38,43.38,0,0,0-13.93-12.67q-7.59-4.11-18.17-4.11-11.12,0-18.17,5.16a16.48,16.48,0,0,0-7.05,14.06q0,9.09,6.52,14.42T263,215q18.34,4.91,28.48,13.46T301.61,252.58Z"/><path class="cls-2" d="M301.61,252.58a29.64,29.64,0,0,1-4.94,16.94A32.46,32.46,0,0,1,282.47,281a53,53,0,0,1-21.61,4.1,54.88,54.88,0,0,1-25.75-6.55,60.39,60.39,0,0,1-20.81-17.73l10.76-9.44a48.18,48.18,0,0,0,16.22,15.82A41.18,41.18,0,0,0,262.63,273q12.51,0,19.05-5.5t6.52-14.94q0-10.31-7-15.81t-22.13-9.7Q221,217.82,221,192.82q0-15.54,10.23-23.93t28.4-8.39a55.52,55.52,0,0,1,23.72,4.89,53.71,53.71,0,0,1,18.79,15l-10.41,8.74a43.38,43.38,0,0,0-13.93-12.67q-7.59-4.11-18.17-4.11-11.12,0-18.17,5.16a16.48,16.48,0,0,0-7.05,14.06q0,9.09,6.52,14.42T263,215q18.34,4.91,28.48,13.46T301.61,252.58Z"/><path class="cls-2" d="M301.61,252.58a29.64,29.64,0,0,1-4.94,16.94A32.46,32.46,0,0,1,282.47,281a53,53,0,0,1-21.61,4.1,54.88,54.88,0,0,1-25.75-6.55,60.39,60.39,0,0,1-20.81-17.73l10.76-9.44a48.18,48.18,0,0,0,16.22,15.82A41.18,41.18,0,0,0,262.63,273q12.51,0,19.05-5.5t6.52-14.94q0-10.31-7-15.81t-22.13-9.7Q221,217.82,221,192.82q0-15.54,10.23-23.93t28.4-8.39a55.52,55.52,0,0,1,23.72,4.89,53.71,53.71,0,0,1,18.79,15l-10.41,8.74a43.38,43.38,0,0,0-13.93-12.67q-7.59-4.11-18.17-4.11-11.12,0-18.17,5.16a16.48,16.48,0,0,0-7.05,14.06q0,9.09,6.52,14.42T263,215q18.34,4.91,28.48,13.46T301.61,252.58Z"/><path class="cls-2" d="M82.42,138.54c-.08,0,1.35.2,1.28.21a7.13,7.13,0,0,1,5.39,4.6,8.65,8.65,0,0,1-2.59,9.71l-.15.14c-1.33,1.17-3,.71-3,2.43a39.67,39.67,0,0,0,1.49,8.84l0,.1c.26,1.05,1.42,1.73,3.47,2A22.35,22.35,0,0,1,99.66,171a9.41,9.41,0,0,0,4.09,1.47c.44.09.89.17,1.31.28,2.33.59,4.72,1.13,7,1.63,3.43.76,7,1.54,10.37,2.56,1.53.45,3,.91,4.35,1.44.9.34,1.71.69,2.51,1.06s1.56.76,2.36,1.2v19.5c-4-5.77-10.35-9.14-20.42-11.19-15.5-3.14-31.19-2.66-45.86-1.66A101.15,101.15,0,0,0,47,190.47a25.52,25.52,0,0,0-13,7.58,29.05,29.05,0,0,0-6.6,14.31,97.27,97.27,0,0,0-.06,36c2.14,11.36,8.56,18.77,19.05,22,11.77,3.63,23.92,3.95,35.37,4s23.65-.25,35.69-3.88a26.39,26.39,0,0,0,14.26-9.74v19.56a47.19,47.19,0,0,1-6.64,3.29Q114.5,287.78,104,292a48,48,0,0,0-8.75-1c-.55,0-1.13,0-1.69,0a48.21,48.21,0,0,0-14.84,2.14,37.47,37.47,0,0,0-10.08,5c-.4.29-.8.58-1.17.87s-.56.46-.84.7v-.22c0-1.21,0-2.26,0-3.16.1-6.22-.6-7.4-9.5-8.48a83.51,83.51,0,0,1-18.52-4.61c-11.36-4.15-19.12-12.4-23-24.53-.87-2.67-2.28-5.62-6.07-7.18-3.37-1.38-5.62-4.42-6.68-9a57,57,0,0,1-.28-22.72c.92-5.48,3.65-9.13,8.33-11.17a8.07,8.07,0,0,0,4-4.74c4.59-14.83,14.39-24.13,30-28.38a90,90,0,0,1,9-2l1.48-.24c.93-.15,1.85-.29,2.75-.46A22.61,22.61,0,0,0,67.8,169l.09-.06.12-.08c1.59-1.12,3.94-1.51,6.21-1.88l1.35-.22c1.76-.33,4.15-1.16,4.48-4.68,0-.36.07-.72.09-1.09a22.73,22.73,0,0,1,.42-3.1c.66-2.87-.16-3-2.68-4.66a8,8,0,0,1-3.16-9.1,7,7,0,0,1,3.09-4.34,14,14,0,0,1,3.33-1.18"/><path class="cls-2" d="M62.49,236.59c-.4,3.12-3.14,3.49-4.75,3.43-2.42-.08-3.84-1.3-4.48-3.83a36.56,36.56,0,0,1-.71-4.29q-.12-.89-.24-1.8c.09-.55.18-1.12.28-1.68a32.49,32.49,0,0,1,.74-3.86C54,222.07,55.46,221,58,221c1.55,0,4.17.42,4.53,3.32A50.28,50.28,0,0,1,62.49,236.59Z"/><path class="cls-2" d="M111.78,230.61c-.11.63-.21,1.23-.29,1.82a31.08,31.08,0,0,1-.79,4.06,4.33,4.33,0,0,1-4.4,3.53c-2.44.08-3.93-.89-4.68-3.07a19.68,19.68,0,0,1,0-13c.67-2,2.1-2.95,4.48-3h0a4,4,0,0,1,4.29,3,34.06,34.06,0,0,1,1,4.8C111.57,229.4,111.67,230,111.78,230.61Z"/><path class="cls-3" d="M57.81,309.93A10.64,10.64,0,0,0,59.57,304a8.55,8.55,0,0,0-2-5.49,14,14,0,0,0-6.42-4A35.24,35.24,0,0,0,39.78,293h-24L4.05,336.68H32.56a43.22,43.22,0,0,0,11.95-1.54,20.23,20.23,0,0,0,8.39-4.44,9.29,9.29,0,0,0,3.07-7A6.7,6.7,0,0,0,53,318a12.09,12.09,0,0,0-3.49-1.72,23.94,23.94,0,0,0,3.24-1.65A15.86,15.86,0,0,0,57.81,309.93ZM39.15,325.54a5.7,5.7,0,0,1-2.06,1.4,7.49,7.49,0,0,1-2.84.51H22.79l1.76-6.55H35.84a5.24,5.24,0,0,1,3.09.72,2.18,2.18,0,0,1,1,1.82A3,3,0,0,1,39.15,325.54Zm3.35-16.16a7.23,7.23,0,0,1-2.93,2.28,10.83,10.83,0,0,1-4.49.86H26.8l2.66-9.9h8a10.66,10.66,0,0,1,4.24.78,2.92,2.92,0,0,1,1.8,2.92A5,5,0,0,1,42.5,309.38Z"/><path class="cls-3" d="M118,301.19a21.35,21.35,0,0,0-9.68-6.62,30.7,30.7,0,0,0-4.2-1.22q-17,6.82-34.06,13.65c-5.87,2.33-6.51,2.19-6.56-3.75a23.7,23.7,0,0,0-3.75,5.32,21.36,21.36,0,0,0-2.39,9.84,16,16,0,0,0,3.35,10.2,21.15,21.15,0,0,0,9.7,6.53,45.27,45.27,0,0,0,15.22,2.27,52.16,52.16,0,0,0,12.28-1.34,39,39,0,0,0,10-3.79,28.8,28.8,0,0,0,7.38-5.74,23.52,23.52,0,0,0,4.53-7.17,21.78,21.78,0,0,0,1.55-8.14A15.77,15.77,0,0,0,118,301.19ZM103.65,317a16,16,0,0,1-3.31,5.13A17.09,17.09,0,0,1,94.67,326a19.93,19.93,0,0,1-8.1,1.49,15.57,15.57,0,0,1-9-2.37c-2.3-1.58-3.44-4-3.44-7.34a14.4,14.4,0,0,1,1-5.16,15.58,15.58,0,0,1,3.32-5.14,16.91,16.91,0,0,1,5.7-3.88,20.15,20.15,0,0,1,8-1.49,15.73,15.73,0,0,1,9,2.37c2.3,1.58,3.44,4,3.44,7.35A14.45,14.45,0,0,1,103.65,317Z"/><path class="cls-3" d="M181.77,293H165.41l-6.78,25.8a11.9,11.9,0,0,1-4.16,6.46,12.63,12.63,0,0,1-7.92,2.28c-2.91,0-5-.5-6.29-1.52a4.92,4.92,0,0,1-1.93-4.13,12.57,12.57,0,0,1,.08-1.48c.06-.51.14-1.05.25-1.61l6.88-25.8H129.18l-6.54,24.76a26.34,26.34,0,0,0-.63,3.08,20.43,20.43,0,0,0-.21,2.87,11.28,11.28,0,0,0,5.83,10.15q5.84,3.59,17.48,3.58,13.51,0,20.56-5t9.56-14.48Z"/><polygon class="cls-3" points="186.88 292.96 175.14 336.68 191.41 336.68 203.15 292.96 186.88 292.96"/><path class="cls-3" d="M311.52,294.06c-2.23-.45-4.65-.83-7.25-1.12a71.62,71.62,0,0,0-8.44-.46,97.35,97.35,0,0,0-10.85.57,39.07,39.07,0,0,0-9.4,2.22,24.82,24.82,0,0,0-7.8,4.74,25.78,25.78,0,0,0-5.91,8.07l-13.71,27.66-8.89-11.48c.65-.25,1.29-.51,1.92-.79a32,32,0,0,0,7-4.1,20.31,20.31,0,0,0,5-5.49,12.56,12.56,0,0,0,1.9-6.77,11.59,11.59,0,0,0-5.88-10.59Q243.32,293,232.35,293H208.61l-11.74,43.71h16.26l2.64-9.83h8.74l6.5,9.83H264.3L269.56,326h16.85l-2.91,10.69h16.36l9.06-33.58c.34-1.21.78-2.62,1.34-4.21a22,22,0,0,1,1.85-4.1Zm-74.43,18.18a11.43,11.43,0,0,1-4.62,3.67,17.24,17.24,0,0,1-7.5,1.46h-6.65l3.92-14.57h8.35a12.91,12.91,0,0,1,5.87,1.12,4,4,0,0,1,2.18,3.86A7.75,7.75,0,0,1,237.09,312.24ZM293,302.68a23.43,23.43,0,0,0-1.22,3.4L289,316.58H274.2l3.94-8a12.2,12.2,0,0,1,2.6-3.5,9.71,9.71,0,0,1,3.82-2.05,21,21,0,0,1,8.05-.55l.49.06Z"/><path class="cls-3" d="M247.77,8.25H142V282.43h26.86l0-.14h50.73v-9.8h-47.9L228.68,75.31Zm-80.26,202a10.05,10.05,0,0,1-2-.19c-3.74-.72-6.51-3.41-6.51-6.63s2.77-5.93,6.51-6.64a9.36,9.36,0,0,1,2-.2c4.7,0,8.5,3.06,8.5,6.84S172.21,210.22,167.51,210.22ZM176.93,160c-11.92,0-21.57-7.76-21.57-17.32s9.65-17.32,21.57-17.32,21.57,7.75,21.57,17.32S188.85,160,176.93,160Zm9.12-76.59c-16.28,0-29.48-10.6-29.48-23.67s13.2-23.66,29.48-23.66,29.47,10.59,29.47,23.66S202.32,83.39,186.05,83.39Z"/><path class="cls-3" d="M247.77,8.25H142V282.43h26.86l0-.14h50.73v-9.8h-47.9L228.68,75.31Zm-80.26,202a10.05,10.05,0,0,1-2-.19c-3.74-.72-6.51-3.41-6.51-6.63s2.77-5.93,6.51-6.64a9.36,9.36,0,0,1,2-.2c4.7,0,8.5,3.06,8.5,6.84S172.21,210.22,167.51,210.22ZM176.93,160c-11.92,0-21.57-7.76-21.57-17.32s9.65-17.32,21.57-17.32,21.57,7.75,21.57,17.32S188.85,160,176.93,160Zm9.12-76.59c-16.28,0-29.48-10.6-29.48-23.67s13.2-23.66,29.48-23.66,29.47,10.59,29.47,23.66S202.32,83.39,186.05,83.39Z"/><path class="cls-3" d="M48.46,30.16v21l7.25,1v62.57c1.57-.37,3.21-.73,4.91-1.08,1.3-.26,2.63-.52,4-.77V93.85c5.73-1.32,11.49-2.55,17.3-3.63q.17,10,.32,20,2.25-.27,4.56-.51l-.36-20.31c6.66-1.1,13.41-1.93,20.17-2.48q.24,10.59.45,21.18l4.42-.22q-.21-10.64-.43-21.28c6.8-.43,13.64-.53,20.46-.36q.06,10.56.09,21.13c.28,0,.57,0,.85,0V1.61S96.64-1.83,48.46,30.16ZM64.62,45.64C70,43,75.48,40.48,81.08,38.1q.15,10.18.32,20.37c-5.68,2-11.25,4.15-16.78,6.4Zm0,43.21v-19c5.56-2.1,11.16-4.1,16.87-6q.17,10.44.35,20.86Q73.14,86.63,64.62,88.85ZM85.46,36.36a162.82,162.82,0,0,1,19.92-6.06q.21,10.79.45,21.56a181.06,181.06,0,0,0-20,5.14Q85.64,46.68,85.46,36.36Zm.87,47.53q-.19-10.67-.4-21.33a191.38,191.38,0,0,1,20-4.71L106.48,81C99.71,81.64,93,82.62,86.33,83.89Zm23.54-54.46a129.14,129.14,0,0,1,21.28-1.55q0,10.83.09,21.64A143.44,143.44,0,0,0,110.3,51.1Q110.08,40.25,109.87,29.43Zm1,51.16q-.24-11.72-.5-23.43a154.42,154.42,0,0,1,20.86-1.4q.09,12.15.18,24.29C124.61,80,117.76,80.05,110.92,80.59Z"/><path class="cls-3" d="M133.05,107.37l.13,66.88-3-1.75c-.88-.42-1.79-.8-2.72-1.15-1.54-.58-3.09-1.09-4.67-1.55V123.62c-11.25-.2-28.28,2-41,4l-6.53,1.06h0c-6.49,1.09-10.81,1.92-10.81,1.92v30.92l-.18.12a22.11,22.11,0,0,1-9.63,3.77V133.09l-1.7-1.4-6.4,1.4v-15.4a129.46,129.46,0,0,1,15-4,320.68,320.68,0,0,1,46.19-5.6l1.53-.08c.74-.05,1.48-.08,2.22-.12,6.54-.31,13.27-.5,20.12-.54h1.45Z"/><path class="cls-3" d="M48.46,30.16v21l7.25,1v62.57c1.57-.37,3.21-.73,4.91-1.08,1.3-.26,2.63-.52,4-.77V93.85c5.73-1.32,11.49-2.55,17.3-3.63q.17,10,.32,20,2.25-.27,4.56-.51l-.36-20.31c6.66-1.1,13.41-1.93,20.17-2.48q.24,10.59.45,21.18l4.42-.22q-.21-10.64-.43-21.28c6.8-.43,13.64-.53,20.46-.36q.06,10.56.09,21.13c.28,0,.57,0,.85,0V1.61S96.64-1.83,48.46,30.16ZM64.62,45.64C70,43,75.48,40.48,81.08,38.1q.15,10.18.32,20.37c-5.68,2-11.25,4.15-16.78,6.4Zm0,43.21v-19c5.56-2.1,11.16-4.1,16.87-6q.17,10.44.35,20.86Q73.14,86.63,64.62,88.85ZM85.46,36.36a162.82,162.82,0,0,1,19.92-6.06q.21,10.79.45,21.56a181.06,181.06,0,0,0-20,5.14Q85.64,46.68,85.46,36.36Zm.87,47.53q-.19-10.67-.4-21.33a191.38,191.38,0,0,1,20-4.71L106.48,81C99.71,81.64,93,82.62,86.33,83.89Zm23.54-54.46a129.14,129.14,0,0,1,21.28-1.55q0,10.83.09,21.64A143.44,143.44,0,0,0,110.3,51.1Q110.08,40.25,109.87,29.43Zm1,51.16q-.24-11.72-.5-23.43a154.42,154.42,0,0,1,20.86-1.4q.09,12.15.18,24.29C124.61,80,117.76,80.05,110.92,80.59Z"/><path class="cls-3" d="M133.05,107.37l.13,66.88-3-1.75c-.88-.42-1.79-.8-2.72-1.15-1.54-.58-3.09-1.09-4.67-1.55V123.62c-11.25-.2-28.28,2-41,4l-6.53,1.06h0c-6.49,1.09-10.81,1.92-10.81,1.92v30.92l-.18.12a22.11,22.11,0,0,1-9.63,3.77V133.09l-1.7-1.4-6.4,1.4v-15.4a129.46,129.46,0,0,1,15-4,320.68,320.68,0,0,1,46.19-5.6l1.53-.08c.74-.05,1.48-.08,2.22-.12,6.54-.31,13.27-.5,20.12-.54h1.45Z"/><path class="cls-3" d="M48.46,30.16v21l7.25,1v62.57c1.57-.37,3.21-.73,4.91-1.08,1.3-.26,2.63-.52,4-.77V93.85c5.73-1.32,11.49-2.55,17.3-3.63q.17,10,.32,20,2.25-.27,4.56-.51l-.36-20.31c6.66-1.1,13.41-1.93,20.17-2.48q.24,10.59.45,21.18l4.42-.22q-.21-10.64-.43-21.28c6.8-.43,13.64-.53,20.46-.36q.06,10.56.09,21.13c.28,0,.57,0,.85,0V1.61S96.64-1.83,48.46,30.16ZM64.62,45.64C70,43,75.48,40.48,81.08,38.1q.15,10.18.32,20.37c-5.68,2-11.25,4.15-16.78,6.4Zm0,43.21v-19c5.56-2.1,11.16-4.1,16.87-6q.17,10.44.35,20.86Q73.14,86.63,64.62,88.85ZM85.46,36.36a162.82,162.82,0,0,1,19.92-6.06q.21,10.79.45,21.56a181.06,181.06,0,0,0-20,5.14Q85.64,46.68,85.46,36.36Zm.87,47.53q-.19-10.67-.4-21.33a191.38,191.38,0,0,1,20-4.71L106.48,81C99.71,81.64,93,82.62,86.33,83.89Zm23.54-54.46a129.14,129.14,0,0,1,21.28-1.55q0,10.83.09,21.64A143.44,143.44,0,0,0,110.3,51.1Q110.08,40.25,109.87,29.43Zm1,51.16q-.24-11.72-.5-23.43a154.42,154.42,0,0,1,20.86-1.4q.09,12.15.18,24.29C124.61,80,117.76,80.05,110.92,80.59Z"/><path class="cls-3" d="M133.05,107.37l.13,66.88-3-1.75c-.88-.42-1.79-.8-2.72-1.15-1.54-.58-3.09-1.09-4.67-1.55V123.62c-11.25-.2-28.28,2-41,4l-6.53,1.06h0c-6.49,1.09-10.81,1.92-10.81,1.92v30.92l-.18.12a22.11,22.11,0,0,1-9.63,3.77V133.09l-1.7-1.4-6.4,1.4v-15.4a129.46,129.46,0,0,1,15-4,320.68,320.68,0,0,1,46.19-5.6l1.53-.08c.74-.05,1.48-.08,2.22-.12,6.54-.31,13.27-.5,20.12-.54h1.45Z"/><path class="cls-3" d="M301.61,252.58a29.64,29.64,0,0,1-4.94,16.94A32.46,32.46,0,0,1,282.47,281a53,53,0,0,1-21.61,4.1,54.88,54.88,0,0,1-25.75-6.55,60.39,60.39,0,0,1-20.81-17.73l10.76-9.44a48.18,48.18,0,0,0,16.22,15.82A41.18,41.18,0,0,0,262.63,273q12.51,0,19.05-5.5t6.52-14.94q0-10.31-7-15.81t-22.13-9.7Q221,217.82,221,192.82q0-15.54,10.23-23.93t28.4-8.39a55.52,55.52,0,0,1,23.72,4.89,53.71,53.71,0,0,1,18.79,15l-10.41,8.74a43.38,43.38,0,0,0-13.93-12.67q-7.59-4.11-18.17-4.11-11.12,0-18.17,5.16a16.48,16.48,0,0,0-7.05,14.06q0,9.09,6.52,14.42T263,215q18.34,4.91,28.48,13.46T301.61,252.58Z"/><path class="cls-3" d="M301.61,252.58a29.64,29.64,0,0,1-4.94,16.94A32.46,32.46,0,0,1,282.47,281a53,53,0,0,1-21.61,4.1,54.88,54.88,0,0,1-25.75-6.55,60.39,60.39,0,0,1-20.81-17.73l10.76-9.44a48.18,48.18,0,0,0,16.22,15.82A41.18,41.18,0,0,0,262.63,273q12.51,0,19.05-5.5t6.52-14.94q0-10.31-7-15.81t-22.13-9.7Q221,217.82,221,192.82q0-15.54,10.23-23.93t28.4-8.39a55.52,55.52,0,0,1,23.72,4.89,53.71,53.71,0,0,1,18.79,15l-10.41,8.74a43.38,43.38,0,0,0-13.93-12.67q-7.59-4.11-18.17-4.11-11.12,0-18.17,5.16a16.48,16.48,0,0,0-7.05,14.06q0,9.09,6.52,14.42T263,215q18.34,4.91,28.48,13.46T301.61,252.58Z"/><path class="cls-3" d="M301.61,252.58a29.64,29.64,0,0,1-4.94,16.94A32.46,32.46,0,0,1,282.47,281a53,53,0,0,1-21.61,4.1,54.88,54.88,0,0,1-25.75-6.55,60.39,60.39,0,0,1-20.81-17.73l10.76-9.44a48.18,48.18,0,0,0,16.22,15.82A41.18,41.18,0,0,0,262.63,273q12.51,0,19.05-5.5t6.52-14.94q0-10.31-7-15.81t-22.13-9.7Q221,217.82,221,192.82q0-15.54,10.23-23.93t28.4-8.39a55.52,55.52,0,0,1,23.72,4.89,53.71,53.71,0,0,1,18.79,15l-10.41,8.74a43.38,43.38,0,0,0-13.93-12.67q-7.59-4.11-18.17-4.11-11.12,0-18.17,5.16a16.48,16.48,0,0,0-7.05,14.06q0,9.09,6.52,14.42T263,215q18.34,4.91,28.48,13.46T301.61,252.58Z"/><path class="cls-3" d="M301.61,252.58a29.64,29.64,0,0,1-4.94,16.94A32.46,32.46,0,0,1,282.47,281a53,53,0,0,1-21.61,4.1,54.88,54.88,0,0,1-25.75-6.55,60.39,60.39,0,0,1-20.81-17.73l10.76-9.44a48.18,48.18,0,0,0,16.22,15.82A41.18,41.18,0,0,0,262.63,273q12.51,0,19.05-5.5t6.52-14.94q0-10.31-7-15.81t-22.13-9.7Q221,217.82,221,192.82q0-15.54,10.23-23.93t28.4-8.39a55.52,55.52,0,0,1,23.72,4.89,53.71,53.71,0,0,1,18.79,15l-10.41,8.74a43.38,43.38,0,0,0-13.93-12.67q-7.59-4.11-18.17-4.11-11.12,0-18.17,5.16a16.48,16.48,0,0,0-7.05,14.06q0,9.09,6.52,14.42T263,215q18.34,4.91,28.48,13.46T301.61,252.58Z"/><path class="cls-3" d="M301.61,252.58a29.64,29.64,0,0,1-4.94,16.94A32.46,32.46,0,0,1,282.47,281a53,53,0,0,1-21.61,4.1,54.88,54.88,0,0,1-25.75-6.55,60.39,60.39,0,0,1-20.81-17.73l10.76-9.44a48.18,48.18,0,0,0,16.22,15.82A41.18,41.18,0,0,0,262.63,273q12.51,0,19.05-5.5t6.52-14.94q0-10.31-7-15.81t-22.13-9.7Q221,217.82,221,192.82q0-15.54,10.23-23.93t28.4-8.39a55.52,55.52,0,0,1,23.72,4.89,53.71,53.71,0,0,1,18.79,15l-10.41,8.74a43.38,43.38,0,0,0-13.93-12.67q-7.59-4.11-18.17-4.11-11.12,0-18.17,5.16a16.48,16.48,0,0,0-7.05,14.06q0,9.09,6.52,14.42T263,215q18.34,4.91,28.48,13.46T301.61,252.58Z"/><path class="cls-3" d="M301.61,252.58a29.64,29.64,0,0,1-4.94,16.94A32.46,32.46,0,0,1,282.47,281a53,53,0,0,1-21.61,4.1,54.88,54.88,0,0,1-25.75-6.55,60.39,60.39,0,0,1-20.81-17.73l10.76-9.44a48.18,48.18,0,0,0,16.22,15.82A41.18,41.18,0,0,0,262.63,273q12.51,0,19.05-5.5t6.52-14.94q0-10.31-7-15.81t-22.13-9.7Q221,217.82,221,192.82q0-15.54,10.23-23.93t28.4-8.39a55.52,55.52,0,0,1,23.72,4.89,53.71,53.71,0,0,1,18.79,15l-10.41,8.74a43.38,43.38,0,0,0-13.93-12.67q-7.59-4.11-18.17-4.11-11.12,0-18.17,5.16a16.48,16.48,0,0,0-7.05,14.06q0,9.09,6.52,14.42T263,215q18.34,4.91,28.48,13.46T301.61,252.58Z"/><path class="cls-3" d="M301.61,252.58a29.64,29.64,0,0,1-4.94,16.94A32.46,32.46,0,0,1,282.47,281a53,53,0,0,1-21.61,4.1,54.88,54.88,0,0,1-25.75-6.55,60.39,60.39,0,0,1-20.81-17.73l10.76-9.44a48.18,48.18,0,0,0,16.22,15.82A41.18,41.18,0,0,0,262.63,273q12.51,0,19.05-5.5t6.52-14.94q0-10.31-7-15.81t-22.13-9.7Q221,217.82,221,192.82q0-15.54,10.23-23.93t28.4-8.39a55.52,55.52,0,0,1,23.72,4.89,53.71,53.71,0,0,1,18.79,15l-10.41,8.74a43.38,43.38,0,0,0-13.93-12.67q-7.59-4.11-18.17-4.11-11.12,0-18.17,5.16a16.48,16.48,0,0,0-7.05,14.06q0,9.09,6.52,14.42T263,215q18.34,4.91,28.48,13.46T301.61,252.58Z"/><path class="cls-3" d="M301.61,252.58a29.64,29.64,0,0,1-4.94,16.94A32.46,32.46,0,0,1,282.47,281a53,53,0,0,1-21.61,4.1,54.88,54.88,0,0,1-25.75-6.55,60.39,60.39,0,0,1-20.81-17.73l10.76-9.44a48.18,48.18,0,0,0,16.22,15.82A41.18,41.18,0,0,0,262.63,273q12.51,0,19.05-5.5t6.52-14.94q0-10.31-7-15.81t-22.13-9.7Q221,217.82,221,192.82q0-15.54,10.23-23.93t28.4-8.39a55.52,55.52,0,0,1,23.72,4.89,53.71,53.71,0,0,1,18.79,15l-10.41,8.74a43.38,43.38,0,0,0-13.93-12.67q-7.59-4.11-18.17-4.11-11.12,0-18.17,5.16a16.48,16.48,0,0,0-7.05,14.06q0,9.09,6.52,14.42T263,215q18.34,4.91,28.48,13.46T301.61,252.58Z"/><path class="cls-3" d="M301.61,252.58a29.64,29.64,0,0,1-4.94,16.94A32.46,32.46,0,0,1,282.47,281a53,53,0,0,1-21.61,4.1,54.88,54.88,0,0,1-25.75-6.55,60.39,60.39,0,0,1-20.81-17.73l10.76-9.44a48.18,48.18,0,0,0,16.22,15.82A41.18,41.18,0,0,0,262.63,273q12.51,0,19.05-5.5t6.52-14.94q0-10.31-7-15.81t-22.13-9.7Q221,217.82,221,192.82q0-15.54,10.23-23.93t28.4-8.39a55.52,55.52,0,0,1,23.72,4.89,53.71,53.71,0,0,1,18.79,15l-10.41,8.74a43.38,43.38,0,0,0-13.93-12.67q-7.59-4.11-18.17-4.11-11.12,0-18.17,5.16a16.48,16.48,0,0,0-7.05,14.06q0,9.09,6.52,14.42T263,215q18.34,4.91,28.48,13.46T301.61,252.58Z"/><path class="cls-3" d="M82.42,138.54c-.08,0,1.35.2,1.28.21a7.13,7.13,0,0,1,5.39,4.6,8.65,8.65,0,0,1-2.59,9.71l-.15.14c-1.33,1.17-3,.71-3,2.43a39.67,39.67,0,0,0,1.49,8.84l0,.1c.26,1.05,1.42,1.73,3.47,2A22.35,22.35,0,0,1,99.66,171a9.41,9.41,0,0,0,4.09,1.47c.44.09.89.17,1.31.28,2.33.59,4.72,1.13,7,1.63,3.43.76,7,1.54,10.37,2.56,1.53.45,3,.91,4.35,1.44.9.34,1.71.69,2.51,1.06s1.56.76,2.36,1.2v19.5c-4-5.77-10.35-9.14-20.42-11.19-15.5-3.14-31.19-2.66-45.86-1.66A101.15,101.15,0,0,0,47,190.47a25.52,25.52,0,0,0-13,7.58,29.05,29.05,0,0,0-6.6,14.31,97.27,97.27,0,0,0-.06,36c2.14,11.36,8.56,18.77,19.05,22,11.77,3.63,23.92,3.95,35.37,4s23.65-.25,35.69-3.88a26.39,26.39,0,0,0,14.26-9.74v19.56a47.19,47.19,0,0,1-6.64,3.29Q114.5,287.78,104,292a48,48,0,0,0-8.75-1c-.55,0-1.13,0-1.69,0a48.21,48.21,0,0,0-14.84,2.14,37.47,37.47,0,0,0-10.08,5c-.4.29-.8.58-1.17.87s-.56.46-.84.7v-.22c0-1.21,0-2.26,0-3.16.1-6.22-.6-7.4-9.5-8.48a83.51,83.51,0,0,1-18.52-4.61c-11.36-4.15-19.12-12.4-23-24.53-.87-2.67-2.28-5.62-6.07-7.18-3.37-1.38-5.62-4.42-6.68-9a57,57,0,0,1-.28-22.72c.92-5.48,3.65-9.13,8.33-11.17a8.07,8.07,0,0,0,4-4.74c4.59-14.83,14.39-24.13,30-28.38a90,90,0,0,1,9-2l1.48-.24c.93-.15,1.85-.29,2.75-.46A22.61,22.61,0,0,0,67.8,169l.09-.06.12-.08c1.59-1.12,3.94-1.51,6.21-1.88l1.35-.22c1.76-.33,4.15-1.16,4.48-4.68,0-.36.07-.72.09-1.09a22.73,22.73,0,0,1,.42-3.1c.66-2.87-.16-3-2.68-4.66a8,8,0,0,1-3.16-9.1,7,7,0,0,1,3.09-4.34,14,14,0,0,1,3.33-1.18"/><path class="cls-3" d="M62.49,236.59c-.4,3.12-3.14,3.49-4.75,3.43-2.42-.08-3.84-1.3-4.48-3.83a36.56,36.56,0,0,1-.71-4.29q-.12-.89-.24-1.8c.09-.55.18-1.12.28-1.68a32.49,32.49,0,0,1,.74-3.86C54,222.07,55.46,221,58,221c1.55,0,4.17.42,4.53,3.32A50.28,50.28,0,0,1,62.49,236.59Z"/><path class="cls-3" d="M111.78,230.61c-.11.63-.21,1.23-.29,1.82a31.08,31.08,0,0,1-.79,4.06,4.33,4.33,0,0,1-4.4,3.53c-2.44.08-3.93-.89-4.68-3.07a19.68,19.68,0,0,1,0-13c.67-2,2.1-2.95,4.48-3h0a4,4,0,0,1,4.29,3,34.06,34.06,0,0,1,1,4.8C111.57,229.4,111.67,230,111.78,230.61Z"/><path class="cls-3" d="M82.42,138.54c-.08,0,1.35.2,1.28.21a7.13,7.13,0,0,1,5.39,4.6,8.65,8.65,0,0,1-2.59,9.71l-.15.14c-1.33,1.17-3,.71-3,2.43a39.67,39.67,0,0,0,1.49,8.84l0,.1c.26,1.05,1.42,1.73,3.47,2A22.35,22.35,0,0,1,99.66,171a9.41,9.41,0,0,0,4.09,1.47c.44.09.89.17,1.31.28,2.33.59,4.72,1.13,7,1.63,3.43.76,7,1.54,10.37,2.56,1.53.45,3,.91,4.35,1.44.9.34,1.71.69,2.51,1.06s1.56.76,2.36,1.2v19.5c-4-5.77-10.35-9.14-20.42-11.19-15.5-3.14-31.19-2.66-45.86-1.66A101.15,101.15,0,0,0,47,190.47a25.52,25.52,0,0,0-13,7.58,29.05,29.05,0,0,0-6.6,14.31,97.27,97.27,0,0,0-.06,36c2.14,11.36,8.56,18.77,19.05,22,11.77,3.63,23.92,3.95,35.37,4s23.65-.25,35.69-3.88a26.39,26.39,0,0,0,14.26-9.74v19.56a47.19,47.19,0,0,1-6.64,3.29Q114.5,287.78,104,292a48,48,0,0,0-8.75-1c-.55,0-1.13,0-1.69,0a48.21,48.21,0,0,0-14.84,2.14,37.47,37.47,0,0,0-10.08,5c-.4.29-.8.58-1.17.87s-.56.46-.84.7v-.22c0-1.21,0-2.26,0-3.16.1-6.22-.6-7.4-9.5-8.48a83.51,83.51,0,0,1-18.52-4.61c-11.36-4.15-19.12-12.4-23-24.53-.87-2.67-2.28-5.62-6.07-7.18-3.37-1.38-5.62-4.42-6.68-9a57,57,0,0,1-.28-22.72c.92-5.48,3.65-9.13,8.33-11.17a8.07,8.07,0,0,0,4-4.74c4.59-14.83,14.39-24.13,30-28.38a90,90,0,0,1,9-2l1.48-.24c.93-.15,1.85-.29,2.75-.46A22.61,22.61,0,0,0,67.8,169l.09-.06.12-.08c1.59-1.12,3.94-1.51,6.21-1.88l1.35-.22c1.76-.33,4.15-1.16,4.48-4.68,0-.36.07-.72.09-1.09a22.73,22.73,0,0,1,.42-3.1c.66-2.87-.16-3-2.68-4.66a8,8,0,0,1-3.16-9.1,7,7,0,0,1,3.09-4.34,14,14,0,0,1,3.33-1.18"/><path class="cls-3" d="M62.49,236.59c-.4,3.12-3.14,3.49-4.75,3.43-2.42-.08-3.84-1.3-4.48-3.83a36.56,36.56,0,0,1-.71-4.29q-.12-.89-.24-1.8c.09-.55.18-1.12.28-1.68a32.49,32.49,0,0,1,.74-3.86C54,222.07,55.46,221,58,221c1.55,0,4.17.42,4.53,3.32A50.28,50.28,0,0,1,62.49,236.59Z"/><path class="cls-3" d="M111.78,230.61c-.11.63-.21,1.23-.29,1.82a31.08,31.08,0,0,1-.79,4.06,4.33,4.33,0,0,1-4.4,3.53c-2.44.08-3.93-.89-4.68-3.07a19.68,19.68,0,0,1,0-13c.67-2,2.1-2.95,4.48-3h0a4,4,0,0,1,4.29,3,34.06,34.06,0,0,1,1,4.8C111.57,229.4,111.67,230,111.78,230.61Z"/><path class="cls-3" d="M82.42,138.54c-.08,0,1.35.2,1.28.21a7.13,7.13,0,0,1,5.39,4.6,8.65,8.65,0,0,1-2.59,9.71l-.15.14c-1.33,1.17-3,.71-3,2.43a39.67,39.67,0,0,0,1.49,8.84l0,.1c.26,1.05,1.42,1.73,3.47,2A22.35,22.35,0,0,1,99.66,171a9.41,9.41,0,0,0,4.09,1.47c.44.09.89.17,1.31.28,2.33.59,4.72,1.13,7,1.63,3.43.76,7,1.54,10.37,2.56,1.53.45,3,.91,4.35,1.44.9.34,1.71.69,2.51,1.06s1.56.76,2.36,1.2v19.5c-4-5.77-10.35-9.14-20.42-11.19-15.5-3.14-31.19-2.66-45.86-1.66A101.15,101.15,0,0,0,47,190.47a25.52,25.52,0,0,0-13,7.58,29.05,29.05,0,0,0-6.6,14.31,97.27,97.27,0,0,0-.06,36c2.14,11.36,8.56,18.77,19.05,22,11.77,3.63,23.92,3.95,35.37,4s23.65-.25,35.69-3.88a26.39,26.39,0,0,0,14.26-9.74v19.56a47.19,47.19,0,0,1-6.64,3.29Q114.5,287.78,104,292a48,48,0,0,0-8.75-1c-.55,0-1.13,0-1.69,0a48.21,48.21,0,0,0-14.84,2.14,37.47,37.47,0,0,0-10.08,5c-.4.29-.8.58-1.17.87s-.56.46-.84.7v-.22c0-1.21,0-2.26,0-3.16.1-6.22-.6-7.4-9.5-8.48a83.51,83.51,0,0,1-18.52-4.61c-11.36-4.15-19.12-12.4-23-24.53-.87-2.67-2.28-5.62-6.07-7.18-3.37-1.38-5.62-4.42-6.68-9a57,57,0,0,1-.28-22.72c.92-5.48,3.65-9.13,8.33-11.17a8.07,8.07,0,0,0,4-4.74c4.59-14.83,14.39-24.13,30-28.38a90,90,0,0,1,9-2l1.48-.24c.93-.15,1.85-.29,2.75-.46A22.61,22.61,0,0,0,67.8,169l.09-.06.12-.08c1.59-1.12,3.94-1.51,6.21-1.88l1.35-.22c1.76-.33,4.15-1.16,4.48-4.68,0-.36.07-.72.09-1.09a22.73,22.73,0,0,1,.42-3.1c.66-2.87-.16-3-2.68-4.66a8,8,0,0,1-3.16-9.1,7,7,0,0,1,3.09-4.34,14,14,0,0,1,3.33-1.18"/><path class="cls-3" d="M62.49,236.59c-.4,3.12-3.14,3.49-4.75,3.43-2.42-.08-3.84-1.3-4.48-3.83a36.56,36.56,0,0,1-.71-4.29q-.12-.89-.24-1.8c.09-.55.18-1.12.28-1.68a32.49,32.49,0,0,1,.74-3.86C54,222.07,55.46,221,58,221c1.55,0,4.17.42,4.53,3.32A50.28,50.28,0,0,1,62.49,236.59Z"/><path class="cls-3" d="M111.78,230.61c-.11.63-.21,1.23-.29,1.82a31.08,31.08,0,0,1-.79,4.06,4.33,4.33,0,0,1-4.4,3.53c-2.44.08-3.93-.89-4.68-3.07a19.68,19.68,0,0,1,0-13c.67-2,2.1-2.95,4.48-3h0a4,4,0,0,1,4.29,3,34.06,34.06,0,0,1,1,4.8C111.57,229.4,111.67,230,111.78,230.61Z"/></g></g></svg>